name GIL04_free3EmgEnv.mot
datacolumns 51
datarows 11
range 0.35462955 0.36388880
endheader
                time	   rect_fem_l_emgRec	   rect_fem_l_emgEnv	   rect_fem_l_emgAve	   rect_fem_l_emgSDp	   rect_fem_l_emgSDm	   rect_fem_r_emgRec	   rect_fem_r_emgEnv	   rect_fem_r_emgAve	   rect_fem_r_emgSDp	   rect_fem_r_emgSDm	   med_hams_l_emgRec	   med_hams_l_emgEnv	   med_hams_l_emgAve	   med_hams_l_emgSDp	   med_hams_l_emgSDm	   med_hams_r_emgRec	   med_hams_r_emgEnv	   med_hams_r_emgAve	   med_hams_r_emgSDp	   med_hams_r_emgSDm	   lat_hams_l_emgRec	   lat_hams_l_emgEnv	   lat_hams_l_emgAve	   lat_hams_l_emgSDp	   lat_hams_l_emgSDm	   lat_hams_r_emgRec	   lat_hams_r_emgEnv	   lat_hams_r_emgAve	   lat_hams_r_emgSDp	   lat_hams_r_emgSDm	    tib_ant_l_emgRec	    tib_ant_l_emgEnv	    tib_ant_l_emgAve	    tib_ant_l_emgSDp	    tib_ant_l_emgSDm	    tib_ant_r_emgRec	    tib_ant_r_emgEnv	    tib_ant_r_emgAve	    tib_ant_r_emgSDp	    tib_ant_r_emgSDm	    gas_sol_l_emgRec	    gas_sol_l_emgEnv	    gas_sol_l_emgAve	    gas_sol_l_emgSDp	    gas_sol_l_emgSDm	    gas_sol_r_emgRec	    gas_sol_r_emgEnv	    gas_sol_r_emgAve	    gas_sol_r_emgSDp	    gas_sol_r_emgSDm	
          0.35462955	          0.03884619	          0.07259089	          0.10641843	          0.15522910	          0.05760776	          0.01013840	          0.01004992	          0.03460578	          0.07189030	         -0.00267875	          0.08292117	          0.25479267	          0.17839685	          0.30752337	          0.04927033	          0.00698770	          0.02137217	          0.05313798	          0.13348092	         -0.02720495	          0.22463770	          0.31340669	          0.40567741	          0.58627976	          0.22507505	          0.01564493	          0.03628958	          0.08341463	          0.13641058	          0.03041868	          0.02083778	          0.27671445	          0.25919235	          0.29829286	          0.22009183	          0.05824783	          0.27634148	          0.24425122	          0.29653352	          0.19196893	          0.45174539	          0.58483437	          0.55821389	          0.63117441	          0.48525337	          0.04468496	          0.03470736	          0.04505714	          0.08332730	          0.00678698	
          0.35555547	          0.04171835	          0.07055318	          0.10538102	          0.15355168	          0.05721036	          0.00978327	          0.01004660	          0.03412157	          0.07073605	         -0.00249290	          0.00035081	          0.26192772	          0.18278334	          0.31476831	          0.05079836	          0.00093361	          0.02151460	          0.05468077	          0.13692124	         -0.02755970	          0.12215874	          0.31746066	          0.40955901	          0.59331511	          0.22580291	          0.01089567	          0.03646844	          0.08536935	          0.14002572	          0.03071298	          0.10434019	          0.27285728	          0.25813583	          0.29770844	          0.21856321	          0.04633152	          0.27469760	          0.24308950	          0.29432153	          0.19185747	          0.68561238	          0.59148061	          0.56110811	          0.63326383	          0.48895240	          0.02560850	          0.03428078	          0.04471568	          0.08290768	          0.00652368	
          0.35648137	          0.03660141	          0.06855104	          0.10437103	          0.15192564	          0.05681643	          0.00219311	          0.01005537	          0.03364533	          0.06959661	         -0.00230595	          0.13167346	          0.26910195	          0.18719883	          0.32204194	          0.05235572	          0.00091845	          0.02165347	          0.05624950	          0.14039012	         -0.02789112	          0.07404091	          0.32135522	          0.41344920	          0.60044749	          0.22645091	          0.00925494	          0.03662480	          0.08732934	          0.14365197	          0.03100670	          0.08196164	          0.26902122	          0.25706106	          0.29712678	          0.21699535	          0.04342921	          0.27313148	          0.24195980	          0.29214619	          0.19177340	          0.38783631	          0.59823748	          0.56404018	          0.63540895	          0.49267142	          0.00855667	          0.03386103	          0.04437783	          0.08248915	          0.00626652	
          0.35740730	          0.02651593	          0.06658960	          0.10338877	          0.15035161	          0.05642594	          0.00204726	          0.01007665	          0.03317723	          0.06847239	         -0.00211793	          0.19375324	          0.27630784	          0.19164222	          0.32934228	          0.05394217	          0.00137364	          0.02178820	          0.05784432	          0.14388731	         -0.02819866	          0.08105778	          0.32508399	          0.41734666	          0.60767446	          0.22701885	          0.00184072	          0.03675796	          0.08929420	          0.14728854	          0.03129986	          0.03500709	          0.26521570	          0.25596890	          0.29654839	          0.21538941	          0.00646829	          0.27164252	          0.24086265	          0.29000837	          0.19171694	          0.03273871	          0.60509922	          0.56700975	          0.63760962	          0.49640987	          0.00097096	          0.03344787	          0.04404364	          0.08207177	          0.00601551	
          0.35833323	          0.00203973	          0.06467381	          0.10243469	          0.14883042	          0.05603895	          0.00003824	          0.01011083	          0.03271755	          0.06736393	         -0.00192882	          0.19034505	          0.28353784	          0.19611190	          0.33666645	          0.05555736	          0.00611393	          0.02191822	          0.05946522	          0.14741230	         -0.02848186	          0.03607531	          0.32864103	          0.42124978	          0.61499298	          0.22750658	          0.00986029	          0.03686724	          0.09126334	          0.15093430	          0.03159238	          0.00256172	          0.26144985	          0.25486037	          0.29597390	          0.21374684	          0.00103471	          0.27023019	          0.23979856	          0.28790896	          0.19168817	          0.31947469	          0.61205984	          0.57001543	          0.63986481	          0.50016605	          0.01257950	          0.03304104	          0.04371318	          0.08165565	          0.00577072	
          0.35925916	          0.00986823	          0.06280844	          0.10150912	          0.14736278	          0.05565545	          0.01092790	          0.01015827	          0.03226650	          0.06627169	         -0.00173869	          0.16853060	          0.29078444	          0.20060639	          0.34401193	          0.05720085	          0.00363302	          0.02204292	          0.06111220	          0.15096454	         -0.02874014	          0.01333893	          0.33202087	          0.42515713	          0.62240008	          0.22791418	          0.01154143	          0.03695203	          0.09323627	          0.15458822	          0.03188432	          0.00361817	          0.25773253	          0.25373653	          0.29540397	          0.21206908	          0.04051377	          0.26889393	          0.23876810	          0.28584892	          0.19168728	          0.43028635	          0.61911315	          0.57305610	          0.64217363	          0.50393857	          0.02903918	          0.03264035	          0.04338656	          0.08124091	          0.00553221	
          0.36018509	          0.01347940	          0.06099806	          0.10061241	          0.14594934	          0.05527548	          0.00761764	          0.01021925	          0.03182434	          0.06519619	         -0.00154752	          0.12109207	          0.29804016	          0.20512435	          0.35137627	          0.05887243	          0.00794150	          0.02216173	          0.06278527	          0.15454359	         -0.02897306	          0.03742037	          0.33521853	          0.42906725	          0.62989278	          0.22824173	          0.01240384	          0.03701171	          0.09521247	          0.15824935	          0.03217559	          0.06085427	          0.25407226	          0.25259846	          0.29483926	          0.21035767	          0.02248681	          0.26763325	          0.23777178	          0.28382913	          0.19171443	          0.28680161	          0.62625279	          0.57613069	          0.64453527	          0.50772611	          0.03399509	          0.03224558	          0.04306385	          0.08082765	          0.00530004	
          0.36111102	          0.02839202	          0.05924701	          0.09974489	          0.14459076	          0.05489903	          0.00427009	          0.01029404	          0.03139124	          0.06413785	         -0.00135538	          0.06335475	          0.30529761	          0.20966412	          0.35875669	          0.06057155	          0.00622127	          0.02227403	          0.06448445	          0.15814902	         -0.02918012	          0.06761389	          0.33822948	          0.43297848	          0.63746779	          0.22848918	          0.01618170	          0.03704573	          0.09719144	          0.16191669	          0.03246619	          0.10023671	          0.25047720	          0.25144726	          0.29428039	          0.20861413	          0.05861373	          0.26644769	          0.23681000	          0.28185034	          0.19176966	          0.29549461	          0.63347221	          0.57923800	          0.64694878	          0.51152722	          0.02725958	          0.03185657	          0.04274511	          0.08041598	          0.00507424	
          0.36203694	          0.03994213	          0.05755942	          0.09890684	          0.14328760	          0.05452607	          0.01290281	          0.01038281	          0.03096748	          0.06309719	         -0.00116224	          0.00880724	          0.31254948	          0.21422429	          0.36615072	          0.06229787	          0.00343786	          0.02237924	          0.06620973	          0.16178032	         -0.02936085	          0.09385820	          0.34104971	          0.43688947	          0.64512205	          0.22865689	          0.01838858	          0.03705358	          0.09917269	          0.16558926	          0.03275612	          0.00723385	          0.24695512	          0.25028408	          0.29372803	          0.20684012	          0.15545912	          0.26533684	          0.23588338	          0.27991353	          0.19185324	          0.34672485	          0.64076469	          0.58237678	          0.64941314	          0.51534042	          0.03447356	          0.03147317	          0.04243043	          0.08000599	          0.00485487	
          0.36296287	          0.05643973	          0.05593917	          0.09809852	          0.14204041	          0.05415662	          0.01190026	          0.01048573	          0.03055326	          0.06207465	         -0.00096814	          0.05272384	          0.31978858	          0.21880321	          0.37355560	          0.06405082	          0.00020292	          0.02247675	          0.06796109	          0.16543705	         -0.02951487	          0.09490732	          0.34367568	          0.44079837	          0.65285189	          0.22874485	          0.01239481	          0.03703476	          0.10115576	          0.16926613	          0.03304538	          0.02273362	          0.24351340	          0.24911004	          0.29318282	          0.20503727	          0.25964982	          0.26430034	          0.23499228	          0.27801942	          0.19196514	          0.24402096	          0.64812338	          0.58554572	          0.65192727	          0.51916417	          0.04816108	          0.03109526	          0.04211988	          0.07959777	          0.00464200	
          0.36388880	          0.06184495	          0.05438990	          0.09732022	          0.14084976	          0.05379068	          0.00476368	          0.01060287	          0.03014880	          0.06107071	         -0.00077311	          0.12155376	          0.32700788	          0.22339945	          0.38096878	          0.06583011	          0.00398015	          0.02256599	          0.06973854	          0.16911869	         -0.02964160	          0.08158207	          0.34610434	          0.44470385	          0.66065408	          0.22875361	          0.00724447	          0.03698883	          0.10314014	          0.17294633	          0.03333394	          0.03839595	          0.24015899	          0.24792632	          0.29264539	          0.20320726	          0.29089631	          0.26333788	          0.23413721	          0.27616885	          0.19210557	          0.07432672	          0.65554124	          0.58874363	          0.65449019	          0.52299707	          0.04941537	          0.03072273	          0.04181354	          0.07919143	          0.00443565	
